HIERARCHY
ROOT SpineBase
{
  OFFSET 0.000000 0.000000 0.000000
  CHANNELS 6 Xposition Yposition Zposition Zrotation Xrotation Yrotation
  JOINT SpineMid
  {
    OFFSET -0.000000 30.919729 -0.000000
    CHANNELS 3 Zrotation Xrotation Yrotation
    JOINT SpineShoulder
    {
      OFFSET -0.036915 23.025214 -0.793425
      CHANNELS 3 Zrotation Xrotation Yrotation
      JOINT Neck
      {
        OFFSET -0.043125 7.641842 -0.599426
        CHANNELS 3 Zrotation Xrotation Yrotation
        JOINT Head
        {
          OFFSET -1.291186 12.113921 0.589593
          CHANNELS 3 Zrotation Xrotation Yrotation
          End Site
          {
            OFFSET 0 0 0
          }
        }
      }
      JOINT ShoulderLeft
      {
        OFFSET -18.373406 -3.280866 4.670464
        CHANNELS 3 Zrotation Xrotation Yrotation
        JOINT ElbowLeft
        {
          OFFSET -1.877733 -27.288881 -1.191262
          CHANNELS 3 Zrotation Xrotation Yrotation
          JOINT WristLeft
          {
            OFFSET 1.469447 -20.401029 -9.389475
            CHANNELS 3 Zrotation Xrotation Yrotation
            JOINT HandLeft
            {
              OFFSET 2.823150 -5.428912 -1.368541
              CHANNELS 3 Zrotation Xrotation Yrotation
              JOINT HandTipLeft
              {
                OFFSET 1.972062 -5.139176 -1.690004
                CHANNELS 3 Zrotation Xrotation Yrotation
                End Site
                {
                  OFFSET 0 0 0
                }
              }
              JOINT ThumbLeft
              {
                OFFSET 2.572557 2.697921 -2.257162
                CHANNELS 3 Zrotation Xrotation Yrotation
                End Site
                {
                  OFFSET 0 0 0
                }
              }
            }
          }
        }
      }
      JOINT ShoulderRight
      {
        OFFSET 15.796054 -2.074056 -5.114985
        CHANNELS 3 Zrotation Xrotation Yrotation
        JOINT ElbowRight
        {
          OFFSET 4.723060 -24.800448 -0.153684
          CHANNELS 3 Zrotation Xrotation Yrotation
          JOINT WristRight
          {
            OFFSET -4.380463 -20.526281 -8.064170
            CHANNELS 3 Zrotation Xrotation Yrotation
            JOINT HandRight
            {
              OFFSET -3.677750 -5.486689 -0.722910
              CHANNELS 3 Zrotation Xrotation Yrotation
              JOINT HandTipRight
              {
                OFFSET -0.539175 -4.001603 0.777610
                CHANNELS 3 Zrotation Xrotation Yrotation
                End Site
                {
                  OFFSET 0 0 0
                }
              }
              JOINT ThumbRight
              {
                OFFSET 2.523223 -1.171296 -0.438957
                CHANNELS 3 Zrotation Xrotation Yrotation
                End Site
                {
                  OFFSET 0 0 0
                }
              }
            }
          }
        }
      }
    }
  }
  JOINT HipLeft
  {
    OFFSET -6.615341 0.876807 -1.652619
    CHANNELS 3 Zrotation Xrotation Yrotation
    JOINT KneeLeft
    {
      OFFSET -6.445133 -26.650946 -2.514624
      CHANNELS 3 Zrotation Xrotation Yrotation
      JOINT AnkleLeft
      {
        OFFSET -1.884368 -34.002478 3.437316
        CHANNELS 3 Zrotation Xrotation Yrotation
        JOINT FootLeft
        {
          OFFSET -3.018774 -2.453700 -13.594096
          CHANNELS 3 Zrotation Xrotation Yrotation
          End Site
          {
            OFFSET 0 0 0
          }
        }
      }
    }
  }
  JOINT HipRight
  {
    OFFSET 5.869174 1.421912 -5.536154
    CHANNELS 3 Zrotation Xrotation Yrotation
    JOINT KneeRight
    {
      OFFSET 7.261313 -24.185988 -2.523493
      CHANNELS 3 Zrotation Xrotation Yrotation
      JOINT AnkleRight
      {
        OFFSET 2.455018 -37.412669 12.814889
        CHANNELS 3 Zrotation Xrotation Yrotation
        JOINT FootRight
        {
          OFFSET -2.661528 -4.098261 -10.950652
          CHANNELS 3 Zrotation Xrotation Yrotation
          End Site
          {
            OFFSET 0 0 0
          }
        }
      }
    }
  }
}
MOTION
Frames: 10
Frame Time: 0.033333
35.269828 69.166313 331.230385 0.000000 -0.000000 17.279256 0.000000 0.000000 -17.279256 -0.000000 0.000000 0.000000 -0.000000 0.000000 0.000000 0.000000 0.000000 0.000000 -0.000000 0.000000 0.000000 -0.000000 0.000000 0.000000 -0.000000 0.000000 0.000000 -0.000000 0.000000 0.000000 0.000000 0.000000 0.000000 0.000000 0.000000 0.000000 -0.000000 0.000000 0.000000 -0.000000 0.000000 0.000000 -0.000000 0.000000 0.000000 -0.000000 0.000000 0.000000 0.000000 0.000000 0.000000 0.000000 0.000000 0.000000 0.000000 0.000000 -17.279256 -0.000000 0.000000 0.000000 -0.000000 0.000000 0.000000 0.000000 0.000000 0.000000 0.000000 0.000000 -17.279256 -0.000000 0.000000 0.000000 -0.000000 0.000000 0.000000 0.000000 0.000000 0.000000
35.349954 69.182668 331.263275 -0.027040 0.070387 17.310466 0.004872 -0.075245 -17.310447 -0.000000 0.000000 0.000000 -0.000000 0.000000 0.000000 0.000000 0.000000 0.000000 -0.000000 0.000000 0.000000 -0.000000 0.000000 0.000000 1.852917 0.705546 -0.110536 -4.681336 -1.990760 0.466833 0.000000 0.000000 0.000000 0.000000 0.000000 0.000000 -0.000000 0.000000 0.000000 -0.000000 0.000000 0.000000 -0.051304 -1.700521 1.147810 -1.620549 7.638967 -2.169053 0.000000 0.000000 0.000000 0.000000 0.000000 0.000000 0.004872 -0.075245 -17.310447 -0.000000 0.000000 0.000000 -0.000000 0.000000 0.000000 0.000000 0.000000 0.000000 0.004872 -0.075245 -17.310447 -0.000000 0.000000 0.000000 3.911668 -14.918099 -0.319192 0.000000 0.000000 0.000000
35.416766 69.196212 331.294882 -0.051503 0.135776 17.342573 0.008689 -0.144956 -17.342501 -0.000000 0.000000 0.000000 -0.000000 0.000000 0.000000 0.000000 0.000000 0.000000 -0.000000 0.000000 0.000000 -0.000000 0.000000 0.000000 4.098355 1.266695 -0.411358 -9.222035 -3.413863 1.013528 0.000000 0.000000 0.000000 0.000000 0.000000 0.000000 -0.000000 0.000000 0.000000 -0.000000 0.000000 0.000000 -0.110386 -3.178405 2.148742 -2.475219 13.714095 -3.791245 0.000000 0.000000 0.000000 0.000000 0.000000 0.000000 0.008689 -0.144956 -17.342501 -0.000000 0.000000 0.000000 -0.000000 0.000000 0.000000 0.000000 0.000000 0.000000 0.008689 -0.144956 -17.342501 -0.000000 0.000000 0.000000 8.191269 -29.867111 0.464285 0.000000 0.000000 0.000000
35.470265 69.206945 331.325204 -0.073389 0.196166 17.375564 0.011458 -0.209131 -17.375418 -0.000000 0.000000 0.000000 -0.000000 0.000000 0.000000 0.000000 0.000000 0.000000 -0.000000 0.000000 0.000000 -0.556553 -0.792340 0.195925 7.496463 2.414727 -1.252377 -13.724771 -4.250787 1.751795 0.000000 0.000000 0.000000 0.000000 0.000000 0.000000 -0.000000 0.000000 0.000000 0.203713 -0.890275 0.111929 -0.404467 -3.474001 2.850416 -2.785047 18.249106 -4.997764 0.000000 0.000000 0.000000 0.000000 0.000000 0.000000 0.011458 -0.209131 -17.375418 -0.000000 0.000000 0.000000 -0.000000 0.000000 0.000000 0.000000 0.000000 0.000000 0.011458 -0.209131 -17.375418 -0.000000 0.000000 0.000000 12.318252 -41.481528 2.174223 0.000000 0.000000 0.000000
35.510452 69.214867 331.354242 -0.092699 0.251560 17.409431 0.013187 -0.267772 -17.409197 -0.000000 0.000000 0.000000 -0.000000 0.000000 0.000000 0.000000 0.000000 0.000000 -0.000000 0.000000 0.000000 -0.693723 -0.913415 0.248985 11.364230 2.647931 -2.252305 -18.460626 -4.517923 2.811828 0.000000 0.000000 0.000000 0.000000 0.000000 0.000000 -0.000000 0.000000 0.000000 0.240512 -1.191735 0.163085 -0.571108 -4.004035 3.375416 -2.722854 21.330883 -5.840557 0.000000 0.000000 0.000000 0.000000 0.000000 0.000000 0.013187 -0.267772 -17.409197 -0.000000 0.000000 0.000000 -0.000000 0.000000 0.000000 0.000000 0.000000 0.000000 0.013187 -0.267772 -17.409197 -0.000000 0.000000 0.000000 15.439596 -48.353933 3.905072 0.000000 0.000000 0.000000
35.537325 69.219979 331.381996 -0.109434 0.301959 17.444166 0.013881 -0.320877 -17.443839 -0.000000 0.000000 0.000000 -0.000000 0.000000 0.000000 0.000000 0.000000 0.000000 -0.000000 0.000000 0.000000 -0.806834 -0.962738 0.296519 16.628674 2.391407 -3.734933 -23.977280 -4.271592 4.370992 0.000000 0.000000 0.000000 0.000000 0.000000 0.000000 -0.000000 0.000000 0.000000 0.261825 -1.495588 0.220982 -0.776797 -4.123665 3.623465 -2.421458 23.057755 -6.323832 0.000000 0.000000 0.000000 0.000000 0.000000 0.000000 0.013881 -0.320877 -17.443839 -0.000000 0.000000 0.000000 -0.000000 0.000000 0.000000 0.000000 0.000000 0.000000 0.013881 -0.320877 -17.443839 -0.000000 0.000000 0.000000 16.626194 -50.612601 4.561228 0.000000 0.000000 0.000000
35.538618 69.222885 331.408727 -0.124418 0.353277 17.469155 0.012630 -0.374332 -17.468730 -0.000000 0.000000 0.000000 -0.000000 0.000000 0.000000 0.000000 0.000000 0.000000 -0.000000 0.000000 0.000000 -1.077476 -0.999914 0.416444 31.205653 -0.868809 -8.041010 -36.869096 -3.002429 8.971380 0.000000 0.000000 0.000000 0.000000 0.000000 0.000000 -0.000000 0.000000 0.000000 0.800087 -2.242782 0.181681 -0.274895 -4.350483 4.258503 -2.692486 24.637519 -6.924174 0.000000 0.000000 0.000000 0.000000 0.000000 0.000000 0.012630 -0.374332 -17.468730 -0.000000 0.000000 0.000000 -0.000000 0.000000 0.000000 0.000000 0.000000 0.000000 0.012630 -0.374332 -17.468730 -0.000000 0.000000 0.000000 13.381456 -44.102076 2.078371 0.000000 0.000000 0.000000
35.531760 69.226659 331.432549 -0.131986 0.405645 17.509705 0.003826 -0.426560 -17.509224 -0.000000 0.000000 0.000000 -0.892069 0.032053 0.047123 0.000000 0.000000 0.000000 -0.000000 0.000000 0.000000 -1.250056 -1.022777 0.492936 50.195474 -7.498931 -12.289699 -54.481841 -3.001461 15.069353 0.000000 0.000000 0.000000 0.000000 0.000000 0.000000 -0.000000 0.000000 0.000000 1.199605 -2.745435 0.145140 0.324872 -4.224430 4.482982 -3.033247 24.753604 -7.017630 0.000000 0.000000 0.000000 0.000000 0.000000 0.000000 0.003826 -0.426560 -17.509224 -0.000000 0.000000 0.000000 -0.000000 0.000000 0.000000 0.000000 0.000000 0.000000 0.003826 -0.426560 -17.509224 -0.000000 0.000000 0.000000 10.693240 -37.224482 0.466629 0.000000 0.000000 0.000000
35.502012 69.225637 331.440383 -0.154729 0.456082 17.552542 0.009982 -0.481510 -17.551884 -0.000000 0.000000 0.000000 -1.083858 0.239039 0.080566 0.000000 0.000000 0.000000 -0.000000 0.000000 0.000000 -1.324332 -1.701618 0.470911 70.319108 -18.941648 -14.479193 -77.936587 -4.886917 24.868850 0.000000 0.000000 0.000000 0.000000 0.000000 0.000000 -0.000000 0.000000 0.000000 2.134092 -3.843724 0.054625 -0.953510 0.594487 2.088271 -4.026999 19.095325 -4.292199 0.000000 0.000000 0.000000 0.000000 0.000000 0.000000 0.009982 -0.481510 -17.551884 -0.000000 0.000000 0.000000 -0.000000 0.000000 0.000000 0.000000 0.000000 0.000000 0.009982 -0.481510 -17.551884 -0.000000 0.000000 0.000000 7.310908 -26.618421 -0.689615 0.000000 0.000000 0.000000
35.503026 69.220053 331.457446 -0.167167 0.482521 17.545660 0.013928 -0.510467 -17.544894 -0.000000 0.000000 0.000000 -1.010286 0.271704 0.080595 0.000000 0.000000 0.000000 -0.000000 0.000000 0.000000 -1.170104 -1.047518 0.454649 76.893002 -26.419600 -12.777790 -84.752648 -3.544239 31.134884 0.000000 0.000000 0.000000 0.000000 0.000000 0.000000 0.965954 0.293225 0.047308 0.147499 -2.962345 0.112463 -5.705219 3.897547 -0.056058 1.195590 14.561829 -2.184901 0.000000 0.000000 0.000000 0.000000 0.000000 0.000000 0.013928 -0.510467 -17.544894 -0.000000 0.000000 0.000000 -0.000000 0.000000 0.000000 0.000000 0.000000 0.000000 0.013928 -0.510467 -17.544894 -0.000000 0.000000 0.000000 4.069961 -14.783433 -1.105792 0.000000 0.000000 0.000000
